<mxfile host="app.diagrams.net" modified="2023-05-31T06:08:11.069Z" agent="Mozilla/5.0 (Windows NT 10.0; Win64; x64) AppleWebKit/537.36 (KHTML, like Gecko) Chrome/113.0.0.0 Safari/537.36" etag="557XJNYma8LucI_tfn87" version="21.3.6" type="google">
  <diagram name="Page-1" id="tilEz6I8yV0hknRP46ub">
    <mxGraphModel grid="1" page="1" gridSize="10" guides="1" tooltips="1" connect="1" arrows="1" fold="1" pageScale="1" pageWidth="850" pageHeight="1100" math="0" shadow="0">
      <root>
        <mxCell id="0" />
        <mxCell id="1" parent="0" />
        <mxCell id="QSkL2MtgT4FcTTNgaqgX-1" value="INCREMENTS THE TIME BY ONE SECOND UNTIL&amp;nbsp; S,D,F is pressed" style="rounded=0;whiteSpace=wrap;html=1;" vertex="1" parent="1">
          <mxGeometry x="395" y="60" width="120" height="120" as="geometry" />
        </mxCell>
        <mxCell id="QSkL2MtgT4FcTTNgaqgX-2" value="HANDLES INITIAL PRESSING OF A ,S , D ,F&amp;nbsp;" style="ellipse;whiteSpace=wrap;html=1;aspect=fixed;" vertex="1" parent="1">
          <mxGeometry x="225" y="410" width="150" height="150" as="geometry" />
        </mxCell>
        <mxCell id="QSkL2MtgT4FcTTNgaqgX-3" value="LABEL_INFINITE_LOOP_MAIN" style="text;html=1;strokeColor=none;fillColor=none;align=center;verticalAlign=middle;whiteSpace=wrap;rounded=0;" vertex="1" parent="1">
          <mxGeometry x="270" y="570" width="60" height="30" as="geometry" />
        </mxCell>
        <mxCell id="QSkL2MtgT4FcTTNgaqgX-4" value="FUNCTION_START_WATCH:" style="text;html=1;strokeColor=none;fillColor=none;align=center;verticalAlign=middle;whiteSpace=wrap;rounded=0;" vertex="1" parent="1">
          <mxGeometry x="410" y="30" width="60" height="30" as="geometry" />
        </mxCell>
        <mxCell id="QSkL2MtgT4FcTTNgaqgX-5" value="RESETS ALL THE REGISTERS AND SHOWS THE CURRENT TIME" style="rounded=0;whiteSpace=wrap;html=1;" vertex="1" parent="1">
          <mxGeometry x="395" y="240" width="120" height="120" as="geometry" />
        </mxCell>
        <mxCell id="QSkL2MtgT4FcTTNgaqgX-6" value="FUNCTION_RESET_WATCH:" style="text;html=1;strokeColor=none;fillColor=none;align=center;verticalAlign=middle;whiteSpace=wrap;rounded=0;" vertex="1" parent="1">
          <mxGeometry x="425" y="370" width="60" height="30" as="geometry" />
        </mxCell>
        <mxCell id="QSkL2MtgT4FcTTNgaqgX-10" value="PAUSES THE WATCH TILL NEXT K VALID KEY IS PRESSED" style="rounded=0;whiteSpace=wrap;html=1;" vertex="1" parent="1">
          <mxGeometry x="700" y="240" width="120" height="120" as="geometry" />
        </mxCell>
        <mxCell id="QSkL2MtgT4FcTTNgaqgX-11" value="FUNCTION_PAUSE_WATCH:" style="text;html=1;strokeColor=none;fillColor=none;align=center;verticalAlign=middle;whiteSpace=wrap;rounded=0;" vertex="1" parent="1">
          <mxGeometry x="720" y="370" width="60" height="30" as="geometry" />
        </mxCell>
        <mxCell id="QSkL2MtgT4FcTTNgaqgX-13" value="SPLITS THE TIME AND STORES THEM INTO A REGISTER" style="rounded=0;whiteSpace=wrap;html=1;" vertex="1" parent="1">
          <mxGeometry x="75" y="240" width="120" height="120" as="geometry" />
        </mxCell>
        <mxCell id="QSkL2MtgT4FcTTNgaqgX-15" value="FUNCTION_SPLIT_TIME" style="text;html=1;strokeColor=none;fillColor=none;align=center;verticalAlign=middle;whiteSpace=wrap;rounded=0;" vertex="1" parent="1">
          <mxGeometry x="105" y="370" width="60" height="30" as="geometry" />
        </mxCell>
        <mxCell id="QSkL2MtgT4FcTTNgaqgX-32" value="" style="endArrow=classic;startArrow=classic;html=1;rounded=0;entryX=0.5;entryY=0;entryDx=0;entryDy=0;exitX=1;exitY=0.5;exitDx=0;exitDy=0;" edge="1" parent="1" source="QSkL2MtgT4FcTTNgaqgX-1" target="QSkL2MtgT4FcTTNgaqgX-10">
          <mxGeometry width="50" height="50" relative="1" as="geometry">
            <mxPoint x="750" y="100" as="sourcePoint" />
            <mxPoint x="600" y="260" as="targetPoint" />
            <Array as="points">
              <mxPoint x="760" y="120" />
            </Array>
          </mxGeometry>
        </mxCell>
        <mxCell id="QSkL2MtgT4FcTTNgaqgX-33" value="" style="endArrow=classic;startArrow=classic;html=1;rounded=0;entryX=0;entryY=0.5;entryDx=0;entryDy=0;exitX=0.5;exitY=0;exitDx=0;exitDy=0;" edge="1" parent="1" source="QSkL2MtgT4FcTTNgaqgX-13" target="QSkL2MtgT4FcTTNgaqgX-1">
          <mxGeometry width="50" height="50" relative="1" as="geometry">
            <mxPoint x="145" y="190" as="sourcePoint" />
            <mxPoint x="195" y="140" as="targetPoint" />
            <Array as="points">
              <mxPoint x="135" y="120" />
            </Array>
          </mxGeometry>
        </mxCell>
        <mxCell id="QSkL2MtgT4FcTTNgaqgX-34" value="" style="endArrow=classic;startArrow=classic;html=1;rounded=0;entryX=0;entryY=0.5;entryDx=0;entryDy=0;exitX=1;exitY=0.5;exitDx=0;exitDy=0;" edge="1" parent="1" source="QSkL2MtgT4FcTTNgaqgX-5" target="QSkL2MtgT4FcTTNgaqgX-10">
          <mxGeometry width="50" height="50" relative="1" as="geometry">
            <mxPoint x="550" y="310" as="sourcePoint" />
            <mxPoint x="600" y="260" as="targetPoint" />
          </mxGeometry>
        </mxCell>
        <mxCell id="QSkL2MtgT4FcTTNgaqgX-35" value="" style="endArrow=classic;startArrow=classic;html=1;rounded=0;exitX=1;exitY=0.5;exitDx=0;exitDy=0;" edge="1" parent="1" source="QSkL2MtgT4FcTTNgaqgX-13" target="QSkL2MtgT4FcTTNgaqgX-5">
          <mxGeometry width="50" height="50" relative="1" as="geometry">
            <mxPoint x="550" y="310" as="sourcePoint" />
            <mxPoint x="600" y="260" as="targetPoint" />
          </mxGeometry>
        </mxCell>
        <mxCell id="QSkL2MtgT4FcTTNgaqgX-36" value="" style="endArrow=classic;startArrow=classic;html=1;rounded=0;exitX=0.75;exitY=0;exitDx=0;exitDy=0;entryX=0.25;entryY=0;entryDx=0;entryDy=0;" edge="1" parent="1" source="QSkL2MtgT4FcTTNgaqgX-13" target="QSkL2MtgT4FcTTNgaqgX-10">
          <mxGeometry width="50" height="50" relative="1" as="geometry">
            <mxPoint x="550" y="310" as="sourcePoint" />
            <mxPoint x="600" y="260" as="targetPoint" />
            <Array as="points">
              <mxPoint x="165" y="200" />
              <mxPoint x="730" y="200" />
            </Array>
          </mxGeometry>
        </mxCell>
        <mxCell id="QSkL2MtgT4FcTTNgaqgX-37" value="" style="endArrow=classic;startArrow=classic;html=1;rounded=0;entryX=0.5;entryY=1;entryDx=0;entryDy=0;exitX=0.5;exitY=0;exitDx=0;exitDy=0;" edge="1" parent="1" source="QSkL2MtgT4FcTTNgaqgX-5" target="QSkL2MtgT4FcTTNgaqgX-1">
          <mxGeometry width="50" height="50" relative="1" as="geometry">
            <mxPoint x="550" y="310" as="sourcePoint" />
            <mxPoint x="600" y="260" as="targetPoint" />
          </mxGeometry>
        </mxCell>
        <mxCell id="-WHFFbDztN9ThRTIit9h-2" value="" style="endArrow=classic;startArrow=classic;html=1;rounded=0;entryX=-0.002;entryY=0.832;entryDx=0;entryDy=0;entryPerimeter=0;exitX=0.711;exitY=0.049;exitDx=0;exitDy=0;exitPerimeter=0;" edge="1" parent="1" source="QSkL2MtgT4FcTTNgaqgX-2" target="QSkL2MtgT4FcTTNgaqgX-1">
          <mxGeometry width="50" height="50" relative="1" as="geometry">
            <mxPoint x="300" y="350" as="sourcePoint" />
            <mxPoint x="360" y="160" as="targetPoint" />
            <Array as="points">
              <mxPoint x="332" y="160" />
            </Array>
          </mxGeometry>
        </mxCell>
        <mxCell id="-WHFFbDztN9ThRTIit9h-3" value="" style="endArrow=classic;startArrow=classic;html=1;rounded=0;exitX=0.972;exitY=0.321;exitDx=0;exitDy=0;exitPerimeter=0;entryX=0.5;entryY=1;entryDx=0;entryDy=0;" edge="1" parent="1" source="QSkL2MtgT4FcTTNgaqgX-2" target="QSkL2MtgT4FcTTNgaqgX-6">
          <mxGeometry width="50" height="50" relative="1" as="geometry">
            <mxPoint x="400" y="320" as="sourcePoint" />
            <mxPoint x="450" y="270" as="targetPoint" />
            <Array as="points">
              <mxPoint x="455" y="460" />
            </Array>
          </mxGeometry>
        </mxCell>
        <mxCell id="-WHFFbDztN9ThRTIit9h-4" value="" style="endArrow=classic;startArrow=classic;html=1;rounded=0;entryX=0.001;entryY=0.332;entryDx=0;entryDy=0;entryPerimeter=0;exitX=0.5;exitY=1;exitDx=0;exitDy=0;" edge="1" parent="1" source="QSkL2MtgT4FcTTNgaqgX-15" target="QSkL2MtgT4FcTTNgaqgX-2">
          <mxGeometry width="50" height="50" relative="1" as="geometry">
            <mxPoint x="140" y="460" as="sourcePoint" />
            <mxPoint x="450" y="270" as="targetPoint" />
            <Array as="points">
              <mxPoint x="135" y="460" />
            </Array>
          </mxGeometry>
        </mxCell>
        <mxCell id="-WHFFbDztN9ThRTIit9h-5" value="" style="endArrow=classic;startArrow=classic;html=1;rounded=0;exitX=1;exitY=0.5;exitDx=0;exitDy=0;entryX=0.75;entryY=1;entryDx=0;entryDy=0;" edge="1" parent="1" source="QSkL2MtgT4FcTTNgaqgX-2" target="QSkL2MtgT4FcTTNgaqgX-11">
          <mxGeometry width="50" height="50" relative="1" as="geometry">
            <mxPoint x="580" y="510" as="sourcePoint" />
            <mxPoint x="630" y="460" as="targetPoint" />
            <Array as="points">
              <mxPoint x="765" y="490" />
            </Array>
          </mxGeometry>
        </mxCell>
      </root>
    </mxGraphModel>
  </diagram>
</mxfile>
